<svg xmlns="http://www.w3.org/2000/svg" width="101.641" height="131.458" viewBox="0 0 101.641 131.458"><defs><style>.a{fill:#3e8aff;}.b{fill:#fff;}</style></defs><g transform="translate(6.911 -0.007)"><path class="a" d="M298.51,293.41l-86.42.16,4-30.67L247.66,280A16.728,16.728,0,1,0,263.6,250.586l-7.522-4.066L258,243l-5.45,1.63-3.85,1.14,1.16,3.9,1.6,5.4,1.9-3.5,8.11,4.39A11,11,0,0,1,251,275.29l-34.1-18.46,5.19-39.66,66.42.15,4.41,33.58-33-17.89A16.73,16.73,0,0,0,244,262.42l8.13,4.41-1.87,3.45,5.4-1.6,3.9-1.16-1.15-3.85-1.61-5.45-1.94,3.58-8.73-4.73a11.005,11.005,0,1,1,10.49-19.35l37.25,20.18Z" transform="translate(-212.09 -195.3)"/><path class="b" d="M276.3,214.27h-5a16.1,16.1,0,0,0-31.92,0h-5a2.645,2.645,0,0,1,0-.28,21.11,21.11,0,0,1,41.94,0Z" transform="translate(-212.09 -195.3)"/><path class="b" d="M224.423,313.338c0-1.416-1.685-1.732-3.71-1.849-4.389-.316-7.28-1.826-7.339-6.215-.176-8.731,15.555-8.731,15.438,0H223.9c0-2.692-5.431-2.458-5.606-.059-.117,1.533,1.393,1.849,3.207,2.048,4.026.433,7.959,1.042,7.959,6.11,0,8.5-16.491,8.638-16.386-.269h5.009C218.091,315.679,224.423,315.714,224.423,313.338Z" transform="translate(-219.98 -188.3)"/><path class="b" d="M242.876,299.328l3.441,10.756h.082l.9-3.441,2.575-7.631h5.138v.784l-7.023,19.652h-2.973l-3.242-9.738h-.082l-3.242,9.738h-2.868l-7.1-19.652V299h5.29l2.6,7.631.9,3.441h.012l3.383-10.756Z" transform="translate(-217.354 -188.253)"/><path class="b" d="M265.071,316.745h-7.982l-1.17,2.54H250.85v-.749l9.106-19.745h2.236l9.129,19.745v.749h-5.08Zm-4.026-9.75-2.282,5.325h4.623Z" transform="translate(-213.541 -188.289)"/><path class="b" d="M270.58,319.249V299h8.907c9.679,0,9.679,15.064,0,15.064h-3.734v5.173Zm8.872-15.567h-3.7v5.782h3.7C282.284,309.417,282.46,303.682,279.452,303.682Z" transform="translate(-210.178 -188.253)"/><path class="b" d="M302.17,299.8l-8.3,14.829h8.392v4.623H286.1v-.784l8.263-14.783h-7.514V299H302.17Z" transform="translate(-207.533 -188.253)"/></g></svg>